<?xml version="1.0" encoding="utf-8"?>
<!-- Generator: Adobe Illustrator 17.1.0, SVG Export Plug-In . SVG Version: 6.00 Build 0)  -->
<!DOCTYPE svg PUBLIC "-//W3C//DTD SVG 1.1//EN" "http://www.w3.org/Graphics/SVG/1.1/DTD/svg11.dtd">
<svg version="1.1" id="Layer_1" xmlns="http://www.w3.org/2000/svg" xmlns:xlink="http://www.w3.org/1999/xlink" x="0px" y="0px"
	 viewBox="0 0 126 38" enable-background="new 0 0 126 38" xml:space="preserve">
<g>
	<path d="M18.9,20l-0.3-1.1l1.4-0.4L16.2,5.6L15,19.8l-1.6,0.5L5.1,9.1l3.7,12.7l1.4-0.4l0.3,1.1l-4.4,1.3l-0.3-1.1l1.4-0.4L3,7.9
		L1.6,8.3L1.3,7.2l3.6-1.1l8.7,11.9l1.2-14.8l3.6-1.1l0.3,1.1l-1.4,0.4L21.6,18l1.4-0.4l0.3,1.1L18.9,20z"/>
	<path d="M34.2,15.7c-1.2,1.4-2.6,2.3-4.1,2.5c-1.6,0.2-2.7,0.1-3.4-0.5c-0.7-0.5-1.1-1.4-1.3-2.7c-0.2-1.3-0.1-2.3,0.4-2.9
		c0.5-0.7,1.5-1.2,3-1.5l4.3-0.9l-0.3-2.3c-0.2-1.6-1.4-2.2-3.3-1.9c-1.3,0.2-2.2,0.6-2.6,1.1c-0.4,0.5-0.5,1.3-0.4,2.2l-1.4,0.1
		c-0.1-0.7,0-1.3,0-1.7c0.1-0.5,0.3-0.9,0.5-1.4c0.5-0.9,1.7-1.5,3.6-1.7c3.1-0.5,4.8,0.6,5.2,3l1.3,8.8l1.4-0.2l0.2,1.2l-2.5,0.4
		L34.2,15.7z M29.9,16.8c1.5-0.2,2.8-1,3.9-2.4l-0.5-3.5l-4.2,0.9c-1,0.2-1.6,0.5-1.9,0.9c-0.3,0.4-0.4,1.1-0.2,2
		c0.1,0.9,0.4,1.5,0.9,1.9C28.3,16.9,29,17,29.9,16.8z"/>
	<path d="M39.2,4.2L39.2,3l2.5-0.2l0.5,1.5c1.5-1.3,3.1-2.1,4.9-2.2C48.4,2,49.5,2.3,50.1,3c0.6,0.6,1,1.7,1.1,3.1l0.6,8.4l1.4-0.1
		l0.1,1.2l-4.5,0.3l-0.1-1.2l1.4-0.1l-0.6-8.4c-0.1-1-0.3-1.7-0.7-2.1c-0.4-0.4-1.1-0.6-2-0.5c-1.6,0.1-3.1,0.8-4.5,2l0.6,9.5
		l1.4-0.1l0.1,1.2L40,16.5L40,15.3l1.4-0.1L40.6,4.1L39.2,4.2z"/>
	<path d="M67.5,4.7c0.2,0.7,0.3,1.3,0.4,1.9C68,7.2,68,7.9,68,8.7c0,0.8,0,1.6-0.1,2.2c-0.1,0.6-0.2,1.2-0.4,1.9
		c-0.2,0.7-0.5,1.2-0.9,1.6c-0.4,0.4-0.9,0.8-1.5,1c-0.7,0.3-1.5,0.4-2.7,0.4s-2.3-0.3-3.6-0.8l0,4.7l1.9,0l0,1.2l-5,0l0-1.2l1.4,0
		L57.2,3.2l-1.4,0l0-1.2l2.5,0l0.3,1.3c1.4-1.1,2.9-1.6,4.5-1.6C65.4,1.7,66.9,2.7,67.5,4.7z M62.8,3.1c-1.4,0-2.7,0.5-3.9,1.4
		l0.1,9.2c1.1,0.5,2.3,0.7,3.7,0.7c1.9,0,3-0.8,3.4-2.4c0.2-0.8,0.3-1.7,0.3-2.7s0-1.7-0.1-2.1c0-0.4-0.1-0.8-0.2-1.3
		c-0.1-0.5-0.2-0.9-0.4-1.2c-0.2-0.3-0.4-0.6-0.6-0.9C64.6,3.4,63.8,3.1,62.8,3.1z"/>
	<path d="M79.8,14.6c-1.5,1.2-3,1.7-4.5,1.6c-1.6-0.1-2.6-0.5-3.2-1.1c-0.6-0.7-0.8-1.6-0.7-2.9c0.1-1.3,0.4-2.2,1-2.8
		c0.6-0.6,1.7-0.9,3.3-0.9l4.4,0l0.1-2.4c0.1-1.6-0.9-2.4-2.9-2.6C76,3.4,75.1,3.6,74.6,4c-0.5,0.4-0.8,1.1-0.9,2.1L72.3,6
		c0.1-0.7,0.2-1.2,0.4-1.7c0.2-0.4,0.4-0.9,0.8-1.2c0.7-0.7,2-1.1,3.9-1c3.1,0.2,4.6,1.5,4.5,4L81.4,15l1.4,0.1l-0.1,1.2l-2.5-0.1
		L79.8,14.6z M75.5,14.8c1.5,0.1,3-0.4,4.3-1.6L80,9.7l-4.3,0c-1,0-1.7,0.2-2.1,0.5c-0.4,0.3-0.6,1-0.6,1.9c-0.1,0.9,0.1,1.6,0.5,2
		C73.9,14.6,74.5,14.8,75.5,14.8z"/>
	<path d="M97.2,4.4l-0.6,4.7L95.5,9c0-1.3-0.2-2.2-0.8-2.9c-0.5-0.7-1.4-1.1-2.6-1.3c-0.7-0.1-1.3,0-1.8,0.1s-0.9,0.4-1.2,0.7
		c-0.3,0.3-0.5,0.7-0.8,1.3c-0.3,0.8-0.5,1.6-0.6,2.5c-0.1,0.9-0.2,1.6-0.2,2c0,0.4,0,0.8,0,1.3c0,0.5,0.1,0.9,0.2,1.2
		c0.1,0.3,0.3,0.7,0.5,1c0.5,0.6,1.4,1,2.6,1.2c1.3,0.2,2.2,0,2.7-0.4c0.5-0.4,0.9-1.1,1.1-2l1.3,0.2c-0.1,0.7-0.3,1.2-0.5,1.7
		c-0.2,0.4-0.5,0.8-0.9,1.2c-0.4,0.4-0.9,0.6-1.6,0.7s-1.5,0.1-2.4,0c-1-0.1-1.8-0.4-2.4-0.7c-0.7-0.4-1.2-0.8-1.5-1.2
		c-0.3-0.5-0.6-1-0.7-1.7c-0.1-0.7-0.2-1.3-0.2-1.9s0.1-1.3,0.2-2.2c0.1-0.8,0.2-1.6,0.4-2.2c0.1-0.6,0.4-1.2,0.7-1.8
		c0.3-0.6,0.7-1.1,1.1-1.5c1-0.8,2.3-1.1,4.1-0.9c1.7,0.2,2.9,1,3.5,2.2L96,4.2L97.2,4.4z"/>
	<path d="M101.6,2l0.2-1.2l3,0.6l-2,9.6l2.1,0.4l3.9-3.7l-1.2-0.2l0.2-1.2l4.4,0.9L112,8.4l-1.4-0.3l-4.6,4.3l2.8,6.7l1.4,0.3
		l-0.2,1.2l-4.4-0.9l0.2-1.2l1.2,0.3l-2.6-6.1l-1.9-0.4l-1.1,5.4l1.4,0.3l-0.2,1.2l-4.4-0.9l0.2-1.2l1.4,0.3l3.1-15L101.6,2z"/>
	<path d="M125.1,11.1l-1.4,4.6l-1-0.3c0.3-1.5,0.3-2.6-0.2-3.3c-0.3-0.3-0.6-0.6-1-0.8c-0.4-0.2-1-0.4-1.8-0.7c-0.8-0.3-1.5-0.2-2,0
		c-0.6,0.3-0.9,0.7-1.1,1.4c-0.2,0.6-0.2,1.2,0.1,1.6c0.3,0.4,0.8,0.9,1.6,1.4l1.6,1c1.3,0.8,2.1,1.6,2.5,2.3
		c0.4,0.7,0.5,1.6,0.1,2.6c-0.8,2.4-2.6,3.1-5.6,2.2c-1.9-0.6-3-1.7-3.4-3.2l-0.5,1.7l-1.1-0.4l1.4-4.6l1,0.3
		c-0.5,2.4,0.4,4,2.7,4.8c2,0.6,3.3,0.2,3.8-1.3c0.2-0.5,0.1-1-0.1-1.5c-0.2-0.4-0.8-0.9-1.6-1.4l-1.6-1c-1.3-0.8-2.1-1.5-2.6-2.2
		s-0.5-1.6-0.1-2.7c0.3-1.1,1-1.9,1.9-2.3c0.9-0.4,2.1-0.4,3.5,0c1.8,0.6,2.9,1.5,3.2,2.8l0.4-1.3L125.1,11.1z"/>
</g>
<g>
	<path fill="#A6A6A6" d="M44,37.4c-1.1,0-1.8-0.3-2.2-0.8c-0.4-0.6-0.6-1.5-0.6-2.7c0-0.4,0-0.8,0-1.1c0-0.3,0.1-0.6,0.2-1
		s0.3-0.6,0.5-0.8c0.2-0.2,0.5-0.4,0.8-0.5s0.8-0.2,1.2-0.2c0.5,0,0.9,0.1,1.2,0.2c0.3,0.1,0.6,0.3,0.8,0.5c0.2,0.2,0.3,0.5,0.5,0.8
		c0.1,0.3,0.2,0.6,0.2,1c0,0.3,0,0.7,0,1.1V34h-4.7c0,1,0.1,1.6,0.4,2.1c0.3,0.4,0.8,0.6,1.5,0.6c0.7,0,1.3-0.1,1.5-0.4
		c0.3-0.3,0.4-0.7,0.5-1.2l0.7,0c0,0.3-0.1,0.6-0.2,0.9c-0.1,0.2-0.2,0.5-0.4,0.7C45.8,37.1,45.1,37.4,44,37.4z M44,31
		c-0.4,0-0.7,0.1-1,0.2c-0.3,0.1-0.5,0.3-0.6,0.6c-0.2,0.4-0.3,1-0.4,1.6H46c0-0.7-0.1-1.3-0.3-1.7C45.4,31.2,44.9,31,44,31z"/>
	<path fill="#A6A6A6" d="M53.1,30.4v2.4h-0.5c-0.1-0.8-0.3-1.3-0.6-1.5c-0.2-0.1-0.4-0.2-0.6-0.3c-0.2,0-0.5-0.1-0.9-0.1
		s-0.7,0.1-1,0.3s-0.3,0.5-0.3,0.8s0.1,0.6,0.3,0.8c0.2,0.2,0.5,0.3,1,0.4l0.9,0.2c0.7,0.2,1.2,0.4,1.6,0.7s0.5,0.7,0.5,1.2
		c0,1.3-0.8,1.9-2.3,1.9c-1,0-1.7-0.3-2.1-1l0,0.9h-0.6v-2.4H49c0.1,1.2,0.8,1.9,2,1.9c1.1,0,1.6-0.4,1.6-1.2c0-0.3-0.1-0.5-0.3-0.7
		c-0.2-0.2-0.5-0.3-1-0.4l-0.9-0.2c-0.7-0.2-1.3-0.4-1.6-0.7c-0.3-0.3-0.5-0.7-0.5-1.3c0-0.6,0.2-1,0.6-1.4c0.4-0.3,0.9-0.5,1.7-0.5
		c0.9,0,1.6,0.3,1.9,0.9l0-0.7L53.1,30.4L53.1,30.4z"/>
	<path fill="#A6A6A6" d="M54.6,31v-0.6h1.1v-1.3l0.8-0.2v1.5h1.2V31h-1.2v4.7c0,0.4,0,0.6,0.1,0.8c0.1,0.1,0.2,0.2,0.4,0.2
		c0.2,0,0.4,0,0.7-0.1l0.1,0.6c-0.4,0.1-0.7,0.2-1,0.2s-0.4,0-0.6-0.1c-0.2-0.1-0.3-0.1-0.4-0.2c-0.1-0.1-0.1-0.2-0.2-0.4
		c-0.1-0.2-0.1-0.5-0.1-0.9V31H54.6z"/>
	<path fill="#A6A6A6" d="M59.4,36.6c0-0.1,0-0.3,0-0.3c0-0.1,0.1-0.2,0.2-0.2c0.1-0.1,0.2-0.1,0.4-0.1c0.2,0,0.3,0.1,0.4,0.2
		c0.1,0.1,0.1,0.3,0.1,0.4c0,0.2,0,0.3,0,0.3c0,0.1,0,0.1-0.1,0.2c-0.1,0.2-0.3,0.2-0.6,0.2S59.4,37.1,59.4,36.6z"/>
	<path fill="#A6A6A6" d="M70.6,36.5v0.7h-5.1v-0.7l3.1-3.3c0.4-0.4,0.6-0.7,0.8-1c0.2-0.3,0.3-0.6,0.3-1s-0.1-0.7-0.4-1
		c-0.2-0.2-0.7-0.4-1.3-0.4c-0.6,0-1,0.1-1.3,0.4c-0.2,0.3-0.4,0.7-0.4,1.2h-0.7c0-0.7,0.2-1.3,0.5-1.7c0.4-0.4,1-0.6,1.8-0.6
		c1.6,0,2.4,0.7,2.4,2.1c0,0.5-0.1,0.9-0.4,1.3c-0.3,0.4-0.6,0.9-1.1,1.4l-2.4,2.6H70.6z"/>
	<path fill="#A6A6A6" d="M76.9,36.6c-0.2,0.2-0.5,0.4-0.8,0.5c-0.3,0.1-0.7,0.2-1.2,0.2c-0.4,0-0.8,0-1.1-0.1
		c-0.3-0.1-0.5-0.2-0.7-0.4c-0.2-0.2-0.4-0.4-0.5-0.6c-0.1-0.2-0.2-0.5-0.3-0.8c-0.1-0.3-0.1-0.7-0.1-1c0-0.3,0-0.7,0-1.2
		c0-0.5,0-0.9,0-1.2c0-0.3,0.1-0.6,0.1-1c0.1-0.3,0.2-0.6,0.3-0.8c0.1-0.2,0.3-0.4,0.5-0.6c0.4-0.3,1-0.5,1.8-0.5
		c0.9,0,1.6,0.2,2,0.7c0.4,0.4,0.6,1.1,0.6,2c0,0.4,0,0.8,0,1.4s0,1,0,1.4c0,0.4-0.1,0.7-0.2,1.1C77.3,36.1,77.1,36.4,76.9,36.6z
		 M74.1,36.5c0.2,0.1,0.5,0.2,0.8,0.2c0.3,0,0.6-0.1,0.8-0.2c0.2-0.1,0.4-0.2,0.5-0.4c0.1-0.2,0.2-0.4,0.3-0.7
		c0.1-0.3,0.1-0.6,0.1-0.9c0-0.3,0-0.7,0-1.2s0-0.9,0-1.2c0-0.3-0.1-0.6-0.1-0.9c-0.1-0.3-0.2-0.5-0.3-0.7c-0.1-0.2-0.3-0.3-0.5-0.4
		c-0.2-0.1-0.5-0.2-0.8-0.2c-0.3,0-0.6,0.1-0.8,0.2c-0.2,0.1-0.4,0.2-0.6,0.4c-0.1,0.2-0.2,0.4-0.3,0.7c-0.1,0.3-0.1,0.6-0.1,0.9
		s0,0.7,0,1.2s0,0.9,0,1.2c0,0.3,0.1,0.6,0.1,0.9c0.1,0.3,0.2,0.5,0.3,0.7C73.7,36.3,73.8,36.4,74.1,36.5z"/>
	<path fill="#A6A6A6" d="M83.8,36.6c-0.2,0.2-0.5,0.4-0.8,0.5c-0.3,0.1-0.7,0.2-1.2,0.2c-0.4,0-0.8,0-1.1-0.1
		c-0.3-0.1-0.5-0.2-0.7-0.4c-0.2-0.2-0.4-0.4-0.5-0.6c-0.1-0.2-0.2-0.5-0.3-0.8c-0.1-0.3-0.1-0.7-0.1-1c0-0.3,0-0.7,0-1.2
		c0-0.5,0-0.9,0-1.2c0-0.3,0.1-0.6,0.1-1c0.1-0.3,0.2-0.6,0.3-0.8c0.1-0.2,0.3-0.4,0.5-0.6c0.4-0.3,1-0.5,1.8-0.5
		c0.9,0,1.6,0.2,2,0.7c0.4,0.4,0.6,1.1,0.6,2c0,0.4,0,0.8,0,1.4s0,1,0,1.4c0,0.4-0.1,0.7-0.2,1.1C84.1,36.1,84,36.4,83.8,36.6z
		 M80.9,36.5c0.2,0.1,0.5,0.2,0.8,0.2c0.3,0,0.6-0.1,0.8-0.2c0.2-0.1,0.4-0.2,0.5-0.4c0.1-0.2,0.2-0.4,0.3-0.7
		c0.1-0.3,0.1-0.6,0.1-0.9c0-0.3,0-0.7,0-1.2s0-0.9,0-1.2c0-0.3-0.1-0.6-0.1-0.9c-0.1-0.3-0.2-0.5-0.3-0.7c-0.1-0.2-0.3-0.3-0.5-0.4
		c-0.2-0.1-0.5-0.2-0.8-0.2c-0.3,0-0.6,0.1-0.8,0.2c-0.2,0.1-0.4,0.2-0.6,0.4c-0.1,0.2-0.2,0.4-0.3,0.7c-0.1,0.3-0.1,0.6-0.1,0.9
		s0,0.7,0,1.2s0,0.9,0,1.2c0,0.3,0.1,0.6,0.1,0.9c0.1,0.3,0.2,0.5,0.3,0.7C80.5,36.3,80.7,36.4,80.9,36.5z"/>
	<path fill="#A6A6A6" d="M88.6,29.1c0.6,0,1,0.1,1.3,0.2c0.3,0.1,0.6,0.4,0.8,0.8c0.2,0.4,0.3,0.8,0.4,1.2c0.1,0.5,0.1,1,0.1,1.7
		s0,1.2-0.1,1.6c0,0.4-0.1,0.8-0.2,1.2c-0.1,0.4-0.3,0.7-0.5,0.9c-0.4,0.5-1.1,0.7-2,0.7s-1.5-0.2-1.9-0.6c-0.4-0.4-0.6-1-0.6-1.8
		h0.7c0,0.6,0.1,1,0.4,1.3c0.3,0.3,0.7,0.4,1.4,0.4s1.1-0.2,1.4-0.6s0.4-1.2,0.4-2.4c-0.6,0.2-1.2,0.3-1.8,0.3
		c-1.8,0-2.7-0.8-2.7-2.3c0-0.8,0.2-1.4,0.7-1.8C87,29.3,87.7,29.1,88.6,29.1z M86.8,31.5c0,0.5,0.1,0.9,0.4,1.3
		c0.3,0.3,0.8,0.5,1.4,0.5s1.2-0.1,1.8-0.2c0-1.3-0.1-2.1-0.4-2.6c-0.2-0.4-0.7-0.6-1.4-0.6s-1.2,0.2-1.5,0.5
		C86.9,30.6,86.8,31,86.8,31.5z"/>
</g>
</svg>
